HIERARCHY
ROOT Hips
{
	OFFSET -3.958830 18.904000 13.208200
	CHANNELS 6 Xposition Yposition Zposition Zrotation Yrotation Xrotation 
	JOINT LHipJoint
	{
		OFFSET 0.000000 0.000000 0.000000
		CHANNELS 3 Zrotation Yrotation Xrotation
		JOINT LeftUpLeg
		{
			OFFSET 1.800000 -1.400000 0.085000
			CHANNELS 3 Zrotation Yrotation Xrotation
			JOINT LeftLeg
			{
				OFFSET 2.215000 -6.000000 0.000000
				CHANNELS 3 Zrotation Yrotation Xrotation
				JOINT LeftFoot
				{
					OFFSET 2.500000 -6.900000 0.000000
					CHANNELS 3 Zrotation Yrotation Xrotation
					JOINT LeftToeBase
					{
						OFFSET 0.200000 -0.500000 1.950000
						CHANNELS 3 Zrotation Yrotation Xrotation
						End Site
						{
							OFFSET 0.000000 0.000000 0.000000
						}
					}
				}
			}
		}
	}
	JOINT RHipJoint
	{
		OFFSET 0.000000 0.000000 0.000000
		CHANNELS 3 Zrotation Yrotation Xrotation
		JOINT RightUpLeg
		{
			OFFSET -1.800000 -1.400000 0.085000
			CHANNELS 3 Zrotation Yrotation Xrotation
			JOINT RightLeg
			{
				OFFSET -2.215000 -6.000000 0.000000
				CHANNELS 3 Zrotation Yrotation Xrotation
				JOINT RightFoot
				{
					OFFSET -2.500000 -6.900000 0.000000
					CHANNELS 3 Zrotation Yrotation Xrotation
					JOINT RightToeBase
					{
						OFFSET -0.200000 -0.500000 1.950000
						CHANNELS 3 Zrotation Yrotation Xrotation
						End Site
						{
							OFFSET 0.000000 0.000000 0.000000
						}
					}
				}
			}
		}
	}
	JOINT LowerBack
	{
		OFFSET 0.000000 0.000000 0.000000
		CHANNELS 3 Zrotation Yrotation Xrotation
		JOINT Spine
		{
			OFFSET -0.087000 1.940000 -0.288900
			CHANNELS 3 Zrotation Yrotation Xrotation
			JOINT Spine1
			{
				OFFSET 0.000000 1.950000 0.060000
				CHANNELS 3 Zrotation Yrotation Xrotation
				JOINT Neck
				{
					OFFSET 0.000000 0.000000 0.000000
					CHANNELS 3 Zrotation Yrotation Xrotation
					JOINT Neck1
					{
						OFFSET 0.000000 1.600000 0.340000
						CHANNELS 3 Zrotation Yrotation Xrotation
						JOINT Head
						{
							OFFSET 0.000000 1.667000 -0.240000
							CHANNELS 3 Zrotation Yrotation Xrotation
							End Site
							{
								OFFSET 0.000000 0.000000 0.000000
							}
						}
					}
				}
				JOINT LeftShoulder
				{
					OFFSET 0.000000 0.000000 0.000000
					CHANNELS 3 Zrotation Yrotation Xrotation
					JOINT LeftArm
					{
						OFFSET 2.700000 1.550000 -0.730000
						CHANNELS 3 Zrotation Yrotation Xrotation
						JOINT LeftForeArm
						{
							OFFSET 5.450000 0.000000 0.000000
							CHANNELS 3 Zrotation Yrotation Xrotation
							JOINT LeftHand
							{
								OFFSET 3.450000 0.000000 0.000000
								CHANNELS 3 Zrotation Yrotation Xrotation
								JOINT LeftHandIndex1
								{
									OFFSET 0.750000 0.000000 0.000000
									CHANNELS 3 Zrotation Yrotation Xrotation
									End Site
									{
										OFFSET 0.000000 0.000000 0.000000
									}
								}
							}
						}
					}
				}
				JOINT RightShoulder
				{
					OFFSET 0.000000 0.000000 0.000000
					CHANNELS 3 Zrotation Yrotation Xrotation
					JOINT RightArm
					{
						OFFSET -2.700000 1.550000 -0.730000
						CHANNELS 3 Zrotation Yrotation Xrotation
						JOINT RightForeArm
						{
							OFFSET -5.450000 0.000000 0.000000
							CHANNELS 3 Zrotation Yrotation Xrotation
							JOINT RightHand
							{
								OFFSET -3.450000 0.000000 0.000000
								CHANNELS 3 Zrotation Yrotation Xrotation
								JOINT RightHandIndex1
								{
									OFFSET -0.750000 0.000000 0.000000
									CHANNELS 3 Zrotation Yrotation Xrotation
									End Site
									{
										OFFSET 0.000000 0.000000 0.000000
									}
								}
							}
						}
					}
				}
			}
		}
	}
}
MOTION
Frames: 6
Frame Time: 0.016667
0.259650 17.078430 -4.209390 0.831752 13.870338 5.864958 -15.378967 14.972389 4.014765 14.473186 -1.332124 -17.513101 -7.209793 4.975948 3.782356 0.257936 3.886386 3.303781 -0.364450 -0.548260 -0.438140 17.597107 -10.760294 1.933591 -13.651530 -0.454492 -12.660254 -4.670305 -2.873154 15.241851 0.317115 -2.903459 3.503487 -0.316880 0.355450 -0.030510 -2.824040 -5.740036 -8.190296 24.701044 1.600513 11.368440 -17.047040 2.475464 -32.433874 16.994391 -17.396921 -9.284924 -38.352746 0.726906 32.192621 -9.066760 -10.868930 14.586450 -14.945903 27.100002 -7.163547 -60.567864 11.073915 -8.085193 4.981258 -43.957135 -1.135522 -3.706486 2.980667 -0.182420 0.134120 -0.371920 0.068320 -14.811105 -1.427190 -1.343481 -40.592110 -14.399321 5.949736 -117.982724 24.678172 -20.663668 3.703526 -1.661427 -0.078200 0.007480 0.225190 0.171470 
0.250740 17.081980 -4.233410 0.773819 13.848912 5.226188 -15.415877 15.029921 4.059776 14.751388 -1.286958 -16.895722 -7.551541 5.004135 3.134725 0.266074 3.980849 3.276401 -0.336900 -0.510000 -0.442430 17.570256 -10.686540 1.878441 -13.579056 -0.780715 -12.208879 -4.601598 -2.975156 15.402735 0.305802 -2.932544 3.491226 -0.284160 0.360150 -0.041930 -2.732652 -6.059266 -8.127934 25.144773 0.817521 12.124705 -17.543792 2.244216 -32.312134 17.610265 -17.858926 -9.325843 -40.570511 1.443467 31.390048 -8.605110 -12.107120 14.146570 -14.892547 27.183347 -7.002086 -61.511048 9.789906 -6.572716 7.903578 -46.818096 -1.877808 -3.661870 2.993520 -0.188400 0.125180 -0.376300 0.081420 -15.757601 -1.357973 -2.376061 -42.527599 -13.450606 6.626973 -119.196043 30.830974 -28.555730 3.691329 -1.663597 -0.076740 0.028580 0.219670 0.183670 
0.247320 17.103070 -4.227140 0.442247 10.525442 4.093326 -15.324645 15.064228 3.871179 14.381097 -1.067213 -14.864892 -6.786856 5.001893 3.402601 0.276641 3.998848 3.294326 -0.293040 -0.428440 -0.477080 17.681104 -10.721486 1.906304 -13.277990 -0.997672 -11.732570 -5.157356 -2.757320 14.410205 0.292710 -2.938473 3.493739 -0.223370 0.400240 -0.054980 -2.897049 -5.996697 -7.808949 28.017999 -0.469004 12.574196 -20.677068 1.322863 -31.398177 18.055719 -18.115529 -9.474391 -43.817380 4.105131 30.299102 -6.526770 -13.085110 14.456920 -13.657794 27.950966 -6.682324 -61.505630 8.792421 -4.525267 15.436695 -54.068735 -4.535901 -3.578051 3.062654 -0.231640 0.134540 -0.395930 0.120400 -18.270466 -2.467115 -3.844077 -44.535497 -10.491408 7.479242 -126.979526 37.526866 -44.646074 3.649268 -1.738255 -0.063270 0.056720 0.206570 0.224960 
0.238610 17.091560 -4.321940 1.459687 12.237949 -1.528410 -15.111672 14.548075 3.586529 15.556389 -0.659048 -9.005902 -7.805984 5.447617 3.375544 0.300647 4.384990 3.154180 -0.078720 -0.125060 -0.366900 17.966093 -11.166038 1.711153 -16.857500 -2.931708 -7.187061 -4.107460 -3.938753 15.039105 0.070349 -3.636086 3.207748 -0.034150 0.311030 -0.055870 -3.612354 -4.428694 -7.481350 30.046045 -3.328115 13.862511 -25.888642 -0.252563 -21.632590 17.028926 -17.182401 -9.006289 -43.145711 5.882323 32.403400 -4.054260 -13.898590 8.199260 -18.233721 17.775210 -3.269758 -56.919449 1.215605 -1.787402 28.252740 -61.107236 -12.924182 -3.419134 3.017287 -0.196240 0.076010 -0.299320 0.158100 -15.405915 1.862232 -3.522396 -48.191950 -9.602950 7.562798 -129.244788 41.787958 -56.777719 3.238035 -1.768668 -0.010560 0.106040 0.115650 0.225180 
0.213610 17.087850 -4.412070 2.303629 11.786564 -7.263634 -14.800639 13.788334 3.184798 15.955862 -0.208892 -2.547991 -7.813389 5.835264 4.173927 0.318837 4.737504 3.065012 0.070150 0.042740 -0.243530 18.368234 -11.842827 1.633252 -19.706009 -4.267635 -3.762147 -4.599697 -4.738187 16.299999 -0.118941 -4.339316 2.930613 0.085420 0.262700 -0.040860 -4.566665 -1.908108 -7.196158 31.235113 -5.796625 13.919257 -29.450205 -1.061666 -7.409784 15.162224 -16.239127 -9.060919 -39.518992 6.068349 33.998728 -1.928770 -13.378480 3.403480 -18.396327 8.063377 0.340624 -53.092933 -7.174108 -1.422296 45.754502 -66.483077 -26.716056 -3.264276 2.685742 -0.147630 0.048550 -0.239590 0.177780 -13.938686 6.267758 -2.040336 -46.004816 -8.430603 4.116184 -120.315184 40.724570 -48.968244 2.986887 -1.802010 -0.002660 0.140170 0.052020 0.193370 
0.179130 17.131590 -4.495700 2.489043 9.736070 -12.743431 -14.579483 13.237732 2.968941 16.779311 -0.005662 3.297885 -7.495161 6.287456 5.321059 0.363329 5.146549 2.947679 0.122420 0.108300 -0.194520 18.635050 -12.398554 1.631828 -20.927296 -5.242120 -1.145580 -6.135935 -4.939794 17.101256 -0.242651 -4.796655 2.766873 0.144390 0.246970 -0.045600 -5.178808 0.006964 -7.057952 30.436920 -7.764501 15.535290 -29.417933 -0.012198 5.101864 13.920556 -15.271222 -10.058548 -35.360795 5.226274 34.857343 -0.298330 -12.388100 0.317270 -16.206452 0.246750 2.949608 -48.207436 -14.418654 -0.808614 70.154328 -70.133577 -47.477052 -3.112257 1.728424 -0.104120 0.037070 -0.214830 0.174400 -13.247837 10.946575 0.560233 -42.024008 -8.139596 -1.526179 -98.817817 27.740351 -22.985974 3.042101 -1.962857 -0.025390 0.173580 0.041580 0.162900 
